<svg xmlns="http://www.w3.org/2000/svg" fill="none" viewBox="0 0 24 24" id="Openai--Streamline-Svg-Logos" height="24" width="24">
  <desc>
    Openai Streamline Icon: https://streamlinehq.com
  </desc>
  <path fill="#000000" d="M17.00905 11.3609c-0.345975 0 -0.592875 0.118175 -0.714075 0.34195l-0.065125 0.1212v-0.404825h-0.562975v2.460575h0.59215v-1.463875c0 -0.34975 0.190075 -0.5504 0.521225 -0.5504 0.3158 0 0.49685 0.195375 0.49685 0.535825v1.47845h0.592375V12.29575c0 -0.58585 -0.3216 -0.93485 -0.860425 -0.93485Zm-2.87165 0c-0.69875 0 -1.131475 0.436 -1.131475 1.13775v0.345475c0 0.67485 0.43775 1.094 1.142525 1.094 0.47145 0 0.801825 -0.172725 1.009775 -0.528025l-0.3671 -0.2112c-0.153625 0.204925 -0.399025 0.3319 -0.642425 0.3319 -0.356775 0 -0.56975 -0.22025 -0.56975 -0.589375v-0.0978h1.6527v-0.408075c0 -0.65375 -0.4292 -1.07465 -1.09375 -1.07465h-0.0005Zm0.555425 1.08495h-1.1159v-0.0591c0 -0.40505 0.1989 -0.628575 0.55995 -0.628575 0.34775 0 0.555425 0.22025 0.555425 0.589375l0.000525 0.0983Zm9.057275 -1.431675v-0.4707h-2.048225v0.4707H22.42v2.393925h-0.718125v0.4707h2.048225v-0.4707H23.03175v-2.393925h0.71835Zm-15.5303 -0.5386c-0.914725 0 -1.483475 0.570025 -1.483475 1.488025v0.496325c0 0.91775 0.5685 1.488 1.483475 1.488 0.915 0 1.4835 -0.57025 1.4835 -1.488v-0.496325c-0.00025 -0.919 -0.569525 -1.488025 -1.4835 -1.488025Zm0.8715 2.0183c0 0.609475 -0.317575 0.958975 -0.8715 0.958975 -0.5539 0 -0.871225 -0.3495 -0.871225 -0.958975v-0.564475c0 -0.609475 0.317825 -0.958975 0.871475 -0.958975 0.553675 0 0.8715 0.3495 0.8715 0.958975l-0.00025 0.564475Zm2.471875 -1.132975c-0.310775 0 -0.579825 0.128725 -0.720125 0.344225l-0.0636 0.09805v-0.38395h-0.563225v3.30715h0.592375v-1.197825l0.063375 0.094025c0.13325 0.197625 0.3935 0.31555 0.696225 0.31555 0.510675 0 1.025875 -0.33365 1.025875 -1.079425v-0.418375c0 -0.537325 -0.317575 -1.079425 -1.0309 -1.079425Zm0.4385 1.4689c0 0.3965 -0.231325 0.642925 -0.60345 0.642925 -0.346975 0 -0.589125 -0.2605 -0.589125 -0.633125v-0.370125c0 -0.37715 0.24415 -0.642675 0.59415 -0.642675 0.369375 0 0.598925 0.246175 0.598925 0.642675l-0.0005 0.360325Zm7.50465 -2.286075L18.31125 13.8798h0.6017l0.2288 -0.7151h1.37385l0.002275 0.00705 0.226275 0.70805h0.60145L20.1485 10.543475l-0.642175 0.00025Zm-0.21775 2.15055 0.5391 -1.68665 0.53355 1.68665h-1.07265Z" stroke-width="0.25"></path>
  <path fill="#000000" d="M5.578125 11.474975c0.13115 -0.393725 0.086075 -0.824925 -0.123725 -1.183 -0.315825 -0.54885 -0.94975 -0.831175 -1.568975 -0.69875 -0.275375 -0.310575 -0.671375 -0.487275 -1.08645 -0.4848 -0.6333775 -0.001425 -1.195115 0.40655 -1.389695 1.0093 -0.40657 0.0834 -0.7574375 0.33805 -0.962755 0.69875 -0.317485 0.547925 -0.2450495 1.23815 0.179275 1.70825 -0.13065 0.393375 -0.0855775 0.823975 0.1237075 1.18175 0.3155375 0.54995 0.9502475 0.833 1.5702275 0.700275 0.27514 0.310175 0.670565 0.486825 1.085215 0.484775 0.633375 0.001425 1.1951 -0.406525 1.389675 -1.009275 0.4065 -0.08345 0.757275 -0.3381 0.9625 -0.69875 0.31835 -0.547825 0.245975 -1.2386 -0.179 -1.708525Zm-2.173175 3.039375c-0.253525 0.000225 -0.499025 -0.0888 -0.693475 -0.251425 0.00855 -0.004775 0.02515 -0.013075 0.0347 -0.019375l1.151575 -0.6648c0.058825 -0.0334 0.095 -0.096025 0.09455 -0.163675v-1.623775l0.486525 0.28085c0.00535 0.002525 0.008975 0.007675 0.00955 0.013575v1.343925c0 0.598575 -0.484875 1.084 -1.083425 1.0847Zm-2.32807 -0.994175c-0.1269475 -0.2194 -0.17278 -0.4764 -0.12949 -0.72615 0.0085475 0.005275 0.023635 0.014325 0.034195 0.02035l1.151835 0.665075c0.0583875 0.034175 0.1306925 0.034175 0.18908 0l1.405275 -0.81265v0.5617c0.00055 0.005875 -0.002025 0.0116 -0.006775 0.0151l-1.16415 0.671825c-0.518285 0.298425 -1.1803125 0.12105 -1.47997 -0.3965v0.00125Zm-0.301725 -2.514375c0.1263525 -0.219725 0.32601 -0.38795 0.563975 -0.475225v1.368825c-0.000345 0.067625 0.0357875 0.1302 0.09454 0.1637l1.40553 0.811625 -0.4882875 0.281875c-0.004835 0.00325 -0.010995 0.003825 -0.0163425 0.0015L1.170665 12.486c-0.5178275 -0.299575 -0.69525 -0.9619 -0.396515 -1.4802h0.001005ZM4.773 11.936125l-1.405525 -0.81165 0.486025 -0.2811c0.00485 -0.003225 0.011 -0.003775 0.01635 -0.001525l1.1639 0.6721c0.363925 0.210275 0.57345 0.612025 0.537575 1.0308 -0.035875 0.418775 -0.31065 0.77905 -0.705025 0.924375v-1.368575c0.000775 -0.0678 -0.0352 -0.130725 -0.09405 -0.164425h0.00075Zm0.484525 -0.729175c-0.00855 -0.005275 -0.023625 -0.014325 -0.0342 -0.020375l-1.151825 -0.66505c-0.0584 -0.0342 -0.1307 -0.0342 -0.189075 0l-1.4055525 0.8114v-0.561475c-0.00019 -0.00585 0.0024275 -0.011475 0.00705 -0.015075l1.1639025 -0.67185c0.364075 -0.20985 0.816625 -0.190325 1.161275 0.0501 0.344625 0.24045 0.5192 0.65845 0.447925 1.072575l0.0005 -0.00025ZM2.2116175 12.208675l-0.4867825 -0.28085c-0.00507 -0.0028 -0.00852 -0.00785 -0.009305 -0.013575v-1.34395c-0.00032 -0.4205 0.2427125 -0.803225 0.62344 -0.98175 0.38073 -0.17855 0.83038 -0.12065 1.15348 0.1485 -0.00855 0.004775 -0.0239 0.013075 -0.0347 0.01935l-1.1515925 0.6648c-0.05875 0.0335 -0.094885 0.096075 -0.09454 0.1637v1.623775Zm0.26426 -0.57 0.6260725 -0.361575 0.625825 0.361575v0.722625l-0.626075 0.361575 -0.626075 -0.361575 0.0002525 -0.722625Z" stroke-width="0.25"></path>
</svg>