<svg xmlns="http://www.w3.org/2000/svg" fill="none" viewBox="0 0 96 96" id="Supabase--Streamline-Svg-Logos" height="24" width="24">
  <desc>
    Supabase Streamline Icon: https://streamlinehq.com
  </desc>
  <path fill="#1f1f1f" d="M47.5989 43.785c2.3299 0 3.6726 1.7818 3.6726 4.1468 0 2.4136-1.5045 4.1955-3.7534 4.1955-1.0763 0-1.874-.4186-2.2716-.9372l-.0259-.0348v3.8553h-2.1517V43.9632h2.087v.9719c.356-.6156 1.2459-1.1501 2.443-1.1501Zm-18.8969-.0648c1.5757 0 2.4232.6976 2.8259 1.4113l.0364.067.0339.0669c.0109.0223.0214.0445.0314.0667l.029.0665.0265.066.0242.0656c.0038.0108.0076.0217.0112.0325l.0208.0645.0186.0637.0163.0627c.0026.0103.0051.0206.0074.0309l.0133.061.0112.0597.0092.0584.0072.0568-1.7958.4049c-.0648-.4697-.4046-1.0691-1.3105-1.0691-.5664 0-1.0193.3402-1.0193.7937 0 .3767.2732.6165.6874.7047l.0405.0081 1.1327.2429c1.5693.324 2.3622 1.2798 2.3622 2.4461 0 1.2958-1.0033 2.6241-3.0903 2.6241-1.5715 0-2.467-.6697-2.9244-1.3865l-.0423-.0684c-.0136-.0228-.0268-.0457-.0396-.0685l-.0371-.0686c-.0179-.0343-.0349-.0686-.0509-.1027l-.0309-.0682c-.0099-.0227-.0194-.0453-.0285-.0679l-.0261-.0673-.0239-.0667c-.0038-.0111-.0074-.0221-.011-.0331l-.0205-.0656-.0183-.0646-.0161-.0637-.014-.0624-.012-.0613-.0099-.0598-.008-.0583-.0033-.0286 1.8445-.4049c.0484.6317.5177 1.2149 1.4561 1.2149.7119 0 1.0517-.3726 1.0517-.7938 0-.3464-.2295-.6317-.8072-.7663l-.0503-.0112-1.0517-.243c-1.5371-.3401-2.2327-1.2635-2.2327-2.3812 0-1.4254 1.2619-2.6079 2.977-2.6079Zm54.1314 0c1.5511 0 2.3965.676 2.8066 1.3779l.0378.0669c.0364.0669.069.1339.098.2004l.0277.0663.0254.0658c.0121.0328.0233.0653.0337.0976l.0196.0641c.0031.0106.0061.0211.009.0317l.0164.0627c.0026.0103.0051.0206.0074.0309l.0133.061c.002.0101.004.0201.0058.03l.0102.0591c.0016.0097.003.0194.0044.029l.0073.0568-1.7957.4049-.0088-.0547c-.0083-.046-.0192-.093-.0331-.1402l-.018-.0568c-.1396-.4076-.5015-.8174-1.2509-.8174-.5664 0-1.0192.3402-1.0192.7937 0 .3767.2731.6165.6873.7047l.0405.0081 1.1327.2429c1.5694.324 2.362 1.2798 2.362 2.4461 0 1.2958-1.0029 2.6241-3.0901 2.6241-1.5464 0-2.4384-.6486-2.9023-1.3524l-.0435-.0682-.041-.0685-.0383-.0686-.0358-.0686c-.0173-.0343-.0337-.0685-.0491-.1026l-.0297-.068-.0273-.0676c-.0043-.0112-.0086-.0224-.0128-.0336l-.0238-.0667-.0216-.066-.0193-.0651c-.003-.0108-.006-.0215-.0089-.0322l-.0161-.0637-.014-.0624-.0119-.0613-.01-.0598-.008-.0583-.0032-.0286 1.8444-.4049c.0486.6317.5176 1.2149 1.4561 1.2149.712 0 1.0517-.3726 1.0517-.7938 0-.3464-.2293-.6317-.8071-.7663l-.0504-.0112-1.0517-.243c-1.5372-.3401-2.2326-1.2635-2.2326-2.3812 0-1.4254 1.2617-2.6079 2.9769-2.6079Zm8.235 0c2.4594 0 3.9315 1.5712 3.9315 4.1306l-.0013.111-.0034.1091-.0048.1042-.0114.1807-.0112.1539-.0001.0053h-5.695c.0483 1.0528.9382 1.8142 2.0061 1.8142.983 0 1.5311-.4823 1.7963-1.1724l.0159-.0425 1.7959.5345c-.4046 1.3769-1.6667 2.527-3.6243 2.527-2.1844 0-4.1096-1.5712-4.1096-4.2602 0-2.5432 1.877-4.1954 3.9154-4.1954Zm-35.0025 0c2.3976 0 3.3645 1.2864 3.4552 2.79l.0045.0953c.0012.0318.0019.0637.0023.0957l.0003.0481.0003 3.9784.0022.121.0044.1253.0062.1276c.0012.0213.0024.0427.0037.064l.0086.1274.0099.1247.011.1201.0118.1136.0125.105.013.0945c.0022.0147.0044.029.0066.0426l.0066.0394h-1.9738c-.0372-.1611-.0649-.4547-.0758-.7216l-.0039-.1207c-.0008-.0393-.0013-.0773-.0013-.1135-.4044.6318-1.1649 1.1825-2.3457 1.1825-1.699 0-2.7343-1.1501-2.7343-2.3974 0-1.4051 1.0218-2.1964 2.3217-2.4049l.0567-.0087 1.9576-.2915c.4531-.0648.5986-.2916.5986-.567 0-.5669-.4368-1.0367-1.3431-1.0367-.9208 0-1.4366.5774-1.5166 1.2573l-.0041.0386-1.909-.405c.1292-1.2473 1.2781-2.6241 3.4139-2.6241Zm18.6282 0c2.3978 0 3.3647 1.2864 3.4554 2.79l.0046.0953c.0011.0318.0019.0637.0022.0957l.0003.0481.0003 3.9784.0023.121.0044.1253c.0009.0211.0018.0423.0029.0636l.0071.128c.0013.0213.0026.0427.0041.0639l.0093.1263.0104.1226.0115.1171c.002.019.004.0376.006.0559l.0125.105c.0064.05.0129.0961.0195.1371l.0066.0394h-1.9739c-.0256-.1115-.0468-.2866-.0611-.4723l-.0084-.1248c-.0012-.0209-.0024-.0418-.0034-.0625l-.0051-.1231c-.0019-.0604-.0029-.1188-.0029-.1731-.4043.6318-1.1649 1.1825-2.3459 1.1825-1.6988 0-2.7342-1.1501-2.7342-2.3974 0-1.4051 1.0219-2.1964 2.3217-2.4049l.0567-.0087 1.9575-.2915c.4531-.0648.5987-.2916.5987-.567 0-.5669-.4368-1.0367-1.343-1.0367-.9208 0-1.4366.5774-1.5168 1.2573l-.0041.0386-1.9089-.405c.1294-1.2473 1.2781-2.6241 3.4137-2.6241Zm-39.0346.2429v4.6004c0 .891.4532 1.6037 1.4563 1.6037.938 0 1.4854-.6258 1.504-1.5238l.0005-.0475v-4.6328h2.152v6.5281c0 .0456.0002.0908.0007.1356l.0023.133.0035.1298.0046.1262.0087.1812.0067.1147.0112.1617.0119.1476.0161.172.0116.1081.0036.0318h-2.0548l-.0051-.0273-.0101-.0642c-.0033-.0234-.0066-.0486-.0097-.0755l-.0092-.0849c-.0015-.0148-.0029-.03-.0043-.0454l-.0079-.0957-.0068-.1007-.0054-.1037c-.0008-.0175-.0015-.035-.0021-.0525l-.003-.1051c-.0006-.0348-.001-.0695-.001-.1036-.4368.7452-1.3594 1.0691-2.2006 1.0691-1.9047 0-3.0018-1.3791-3.0251-3.0867l-.0004-.0558v-5.0378h2.1518Zm28.1571-3.758v4.6328c.356-.567 1.2295-1.0853 2.4108-1.0853 2.3298 0 3.6729 1.798 3.6729 4.163 0 2.4136-1.4885 4.2117-3.7539 4.2117-1.0773 0-1.9064-.466-2.3352-1.1241l-.0268-.0422v.9719h-2.0872V40.2051h2.1194Zm-6.3918 8.5042v-.3563l-1.7959.2753c-.5503.081-.9871.3888-.9871 1.0044 0 .4697.34.9233 1.0355.9233.893 0 1.7231-.4248 1.7469-1.786l.0006-.0607Zm18.6284 0v-.3563l-1.7958.2753c-.5503.081-.9871.3888-.9871 1.0044 0 .4697.3399.9233 1.0357.9233.8928 0 1.7228-.4248 1.7467-1.786l.0005-.0607Zm-28.875-2.9967c-1.1 0-1.9899.8261-1.9899 2.2354s.8899 2.2516 1.9899 2.2516c1.1003 0 1.9738-.8261 1.9738-2.2516 0-1.4093-.8735-2.2354-1.9738-2.2354Zm18.5961-.0324c-1.084 0-1.9899.7937-1.9899 2.2516 0 1.4417.9059 2.2678 1.9899 2.2678 1.1003 0 1.9738-.8099 1.9738-2.2678s-.8735-2.2516-1.9738-2.2516Zm25.3265-.2106c-1.0974 0-1.7103.814-1.7769 1.5341l-.0029.0372h3.5596c-.0324-.7938-.5503-1.5713-1.7798-1.5713Z"></path>
  <path fill="url(#a)" d="M11.3137 56.762c-.4631.5832-1.40207.2636-1.41323-.481L9.7373 45.3896h7.3233c1.3265 0 2.0663 1.5321 1.2415 2.571l-6.9884 8.8014Z"></path>
  <path fill="url(#b)" fill-opacity=".2" d="M11.3137 56.762c-.4631.5832-1.40207.2636-1.41323-.481L9.7373 45.3896h7.3233c1.3265 0 2.0663 1.5321 1.2415 2.571l-6.9884 8.8014Z"></path>
  <path fill="#3ecf8e" d="M8.33509 39.2372c.4631-.5832 1.40208-.2636 1.41324.481l.0715 10.8914H2.58816c-1.32649 0-2.066302-1.5321-1.24145-2.571l6.98838-8.8014Z"></path>
  <defs>
    <linearGradient id="a" x1="195.646" x2="615.573" y1="286.878" y2="462.995" gradientUnits="userSpaceOnUse">
      <stop stop-color="#249361"></stop>
      <stop offset="1" stop-color="#3ecf8e"></stop>
    </linearGradient>
    <linearGradient id="b" x1="27.482" x2="297.055" y1="-108.215" y2="399.243" gradientUnits="userSpaceOnUse">
      <stop></stop>
      <stop offset="1" stop-opacity="0"></stop>
    </linearGradient>
  </defs>
</svg>