<?xml version="1.0" encoding="UTF-8"?>
<svg version="1.1" xmlns="http://www.w3.org/2000/svg" width="1359" height="461">
<path d="M0 0 C2.95944426 0.00315118 5.91787618 -0.02036515 8.87719727 -0.0456543 C36.35718462 -0.13839569 61.22530241 3.46962477 82.01196289 22.94067383 C90.95515943 32.25139899 96.83632042 43.70945474 99.29321289 56.31567383 C100.32913574 56.29472656 101.36505859 56.2737793 102.43237305 56.25219727 C143.5065364 55.49565227 179.25823569 60.21141784 210.04321289 89.62817383 C236.70130942 117.25354527 243.5182068 155.65519281 243.54321289 192.62817383 C243.54388763 193.52273285 243.54456238 194.41729187 243.54525757 195.33895874 C243.52943031 208.53992772 243.18096018 221.38138327 240.29321289 234.31567383 C240.12160645 235.11086426 239.95 235.90605469 239.77319336 236.7253418 C233.27013725 266.02105748 218.80985773 293.05216547 193.10131836 309.765625 C170.40630285 324.05854737 145.81428806 329.42206086 119.18383789 329.51879883 C117.31897736 329.52734894 117.31897736 329.52734894 115.41644287 329.53607178 C112.79090209 329.54547996 110.16534971 329.55203903 107.53979492 329.5559082 C103.59670338 329.56554312 99.65414965 329.59657874 95.71118164 329.62817383 C76.47455104 329.71076049 57.22012383 329.25136423 38.91821289 322.69067383 C37.92345947 322.34512451 36.92870605 321.9995752 35.90380859 321.64355469 C7.82661907 311.51597877 -12.76167174 291.24325001 -25.66967773 264.58764648 C-34.42932511 245.39807998 -37.46514901 224.14758186 -38.26928711 203.25317383 C-38.3124707 202.19678711 -38.3556543 201.14040039 -38.40014648 200.05200195 C-38.50516048 197.47332504 -38.60731588 194.89456948 -38.70678711 192.31567383 C-39.47369873 192.16807617 -40.24061035 192.02047852 -41.03076172 191.8684082 C-57.60140543 188.5238475 -72.69006237 178.54246622 -82.34350586 164.58911133 C-99.4917978 135.99224625 -103.02032655 95.80185132 -95.2590332 63.4206543 C-89.3975682 41.07867762 -79.70370593 23.17948552 -59.35131836 10.89379883 C-40.8734688 0.86561917 -20.52549827 -0.04548867 0 0 Z M-6.70678711 93.31567383 C-31.0270849 119.5457386 -36.70745012 156.99361707 -37.70678711 191.31567383 C-27.74646463 195.14656709 -17.1330047 194.44162572 -6.64428711 194.37817383 C-5.1918147 194.37314797 -3.7393406 194.36858699 -2.28686523 194.36450195 C1.23986304 194.35358424 4.76652691 194.33637969 8.29321289 194.31567383 C8.33808838 193.64213867 8.38296387 192.96860352 8.42919922 192.2746582 C10.04445981 168.66731291 11.98662578 146.00426276 26.29321289 126.31567383 C27.05633789 125.24317383 27.81946289 124.17067383 28.60571289 123.06567383 C45.08418422 106.20398223 67.41013334 103.39712104 89.79321289 102.75317383 C91.20207762 102.70989646 92.61093196 102.66627952 94.01977539 102.62231445 C97.44416749 102.51676812 100.86862581 102.41465585 104.29321289 102.31567383 C104.39680986 94.97534146 104.15610069 87.75021773 103.48071289 80.44067383 C103.39450684 79.49047363 103.30830078 78.54027344 103.21948242 77.5612793 C102.50593923 70.29105328 101.28579868 63.35614363 99.29321289 56.31567383 C58.91713597 55.57660174 22.18134903 63.19997111 -6.70678711 93.31567383 Z M105.29321289 103.31567383 C104.17595377 105.55019208 104.07186939 107.02437198 103.89868164 109.50708008 C101.88750376 135.4760164 96.06788122 159.05442834 76.13696289 177.28833008 C57.06322897 193.01033901 32.91205388 194.54014862 9.29321289 195.31567383 C8.37138082 218.156624 12.26973748 242.70797245 27.28149414 260.69848633 C41.29884309 275.81774754 60.29052861 281.35054728 80.2947998 282.48605347 C86.7788731 282.70117186 93.26021042 282.70071445 99.74707031 282.65185547 C103.11881186 282.62808147 106.48976691 282.63134483 109.86157227 282.63793945 C133.96957611 282.60713348 157.63954831 280.42943332 175.88696289 262.88989258 C179.25090353 259.2911314 181.89469184 255.60932263 184.29321289 251.31567383 C184.73149414 250.54739258 185.16977539 249.77911133 185.62133789 248.98754883 C200.84068674 220.56587326 200.37059375 180.21255506 191.24169922 149.97290039 C186.07998968 134.06880722 177.05762783 120.79274614 162.29321289 112.31567383 C147.79252417 105.0948424 133.27956162 103.13414603 117.29321289 103.25317383 C116.13692383 103.25768555 114.98063477 103.26219727 113.78930664 103.2668457 C110.95722064 103.27854854 108.12524478 103.29494386 105.29321289 103.31567383 Z " fill="#2563EB" transform="translate(160.706787109375,75.684326171875)"/>
<path d="M0 0 C7.59 0 15.18 0 23 0 C29.27 16.17 35.54 32.34 42 49 C44.18814913 46.81185087 44.79026154 45.32705765 45.87939453 42.45849609 C46.239617 41.51767181 46.59983948 40.57684753 46.97097778 39.60751343 C47.35438324 38.58976837 47.7377887 37.57202332 48.1328125 36.5234375 C48.52951141 35.48305328 48.92621033 34.44266907 49.33493042 33.37075806 C50.60333951 30.04073519 51.86424266 26.70792641 53.125 23.375 C53.98258082 21.11960449 54.84064757 18.86439369 55.69921875 16.609375 C57.80605197 11.07537208 59.90271941 5.53766815 62 0 C69.59 0 77.18 0 85 0 C86.63052138 3.26104276 86.54137947 6.89725991 86.84790039 10.48876953 C86.92607498 11.36688293 87.00424957 12.24499634 87.08479309 13.14971924 C87.34294823 16.06042325 87.59531574 18.97159911 87.84765625 21.8828125 C88.0252339 23.89780761 88.20317112 25.91277106 88.38145447 27.92770386 C88.8502898 33.23746113 89.31422437 38.54763575 89.77716064 43.85791016 C90.25019015 49.2740221 90.72782427 54.6897277 91.20507812 60.10546875 C92.14124152 70.73658648 93.07180552 81.36818355 94 92 C86.74 92 79.48 92 72 92 C71.09102244 89.27306733 70.75507802 87.18206779 70.51928711 84.3449707 C70.43927963 83.40422195 70.35927216 82.46347321 70.27684021 81.49421692 C70.15333946 79.97534126 70.15333946 79.97534126 70.02734375 78.42578125 C69.93997452 77.38681198 69.85260529 76.34784271 69.7625885 75.27738953 C69.48409164 71.95603871 69.21073721 68.63428724 68.9375 65.3125 C68.74968726 63.0618207 68.56154039 60.81116926 68.37304688 58.56054688 C67.91148569 53.04068206 67.45414686 47.5204795 67 42 C66.78924332 42.61165512 66.57848663 43.22331024 66.36134338 43.85350037 C64.17496984 50.19691834 61.98455594 56.53893043 59.79174805 62.88012695 C58.97299291 65.24955716 58.15528252 67.61934863 57.33862305 69.98950195 C56.16727211 73.38847967 54.99221846 76.78615717 53.81640625 80.18359375 C53.44971329 81.25024765 53.08302032 82.31690155 52.70521545 83.4158783 C52.3649382 84.39681961 52.02466095 85.37776093 51.67407227 86.38842773 C51.3742897 87.25668686 51.07450714 88.12494598 50.76564026 89.01951599 C50 91 50 91 49 92 C46.81360547 92.07258946 44.62499611 92.08373783 42.4375 92.0625 C40.64119141 92.04896484 40.64119141 92.04896484 38.80859375 92.03515625 C37.41833984 92.01775391 37.41833984 92.01775391 36 92 C33.33797592 85.48076836 30.85439948 78.92593992 28.546875 72.2734375 C28.24179016 71.39974518 27.93670532 70.52605286 27.62237549 69.62588501 C26.66279447 66.87632463 25.70634128 64.12568867 24.75 61.375 C24.09395799 59.49341705 23.43770977 57.61190599 22.78125 55.73046875 C21.18511924 51.15447189 19.59178967 46.57750866 18 42 C17.95210831 42.59690643 17.90421661 43.19381287 17.85487366 43.80880737 C17.35687053 50.00559816 16.85310495 56.20190108 16.34594727 62.39794922 C16.15728417 64.71228147 15.97010485 67.02673517 15.78442383 69.34130859 C15.51771171 72.66276351 15.24571594 75.98374917 14.97265625 79.3046875 C14.89032242 80.34430634 14.80798859 81.38392517 14.72315979 82.45504761 C14.64315231 83.41589264 14.56314484 84.37673767 14.48071289 85.36669922 C14.41187393 86.21497284 14.34303497 87.06324646 14.27210999 87.93722534 C14 90 14 90 13 92 C6.07 92 -0.86 92 -8 92 C-8.20849421 82.24922112 -7.39187356 72.66494086 -6.50390625 62.96875 C-6.34903686 61.24290821 -6.19449644 59.51703687 -6.04026794 57.7911377 C-5.71801893 54.1970588 -5.39239633 50.60330701 -5.06420898 47.00976562 C-4.643632 42.40245216 -4.23072712 37.79448947 -3.82019138 33.18627167 C-3.50292894 29.63276563 -3.18210805 26.07958804 -2.86015129 22.52650452 C-2.70645602 20.82651229 -2.55376653 19.12642883 -2.40210152 17.42625427 C-2.19032269 15.05922073 -1.97386721 12.6926613 -1.75610352 10.32617188 C-1.69424362 9.62488159 -1.63238373 8.92359131 -1.56864929 8.2010498 C-1.29629815 5.28869009 -0.92956804 2.78870413 0 0 Z " fill="#2563EB" transform="translate(579,188)"/>
<path d="M0 0 C47.32786885 0 47.32786885 0 57 8 C60.82519668 12.76988088 63.72998979 17.78976527 64 24 C64.0825 25.2375 64.165 26.475 64.25 27.75 C64.08689306 36.29680366 61.0412871 43.93074397 55 50 C52.24636963 52.0308024 49.53006031 54 46 54 C50.77558899 59.88399729 55.5935459 65.72500942 60.5 71.5 C64.05692724 75.69568662 67.60913791 79.89480403 71.125 84.125 C71.84945313 84.99382812 72.57390625 85.86265625 73.3203125 86.7578125 C75 89 75 89 76 92 C52.11296475 94.04338376 52.11296475 94.04338376 45.85351562 90.93359375 C42.63845658 88.1574911 40.81196222 84.64237229 38.98193359 80.86083984 C37.28720621 77.64920083 34.96484036 74.9378186 32.6875 72.125 C29.34866018 67.80934257 26.17666177 63.44732648 23 59 C22.67 69.89 22.34 80.78 22 92 C14.74 92 7.48 92 0 92 C0 61.64 0 31.28 0 0 Z M22 18 C22 25.59 22 33.18 22 41 C30.54379073 41.14342357 30.54379073 41.14342357 38 38 C40.79881723 34.06416327 41.69745604 30.78255568 41 26 C39.31683167 22.75834248 37.95719264 20.61935995 34.875 18.625 C30.86173116 17.64595059 30.86173116 17.64595059 22 18 Z " fill="#2563EB" transform="translate(1176,188)"/>
<path d="M0 0 C7.26 0 14.52 0 22 0 C22 12.21 22 24.42 22 37 C31.24 37 40.48 37 50 37 C50 24.79 50 12.58 50 0 C57.26 0 64.52 0 72 0 C72 30.36 72 60.72 72 92 C64.74 92 57.48 92 50 92 C50 80.12 50 68.24 50 56 C40.76 56 31.52 56 22 56 C22 67.88 22 79.76 22 92 C14.74 92 7.48 92 0 92 C0 61.64 0 31.28 0 0 Z " fill="#2563EB" transform="translate(1028,188)"/>
<path d="M0 0 C17.82 0 35.64 0 54 0 C54 6.27 54 12.54 54 19 C53 20 53 20 50.04077148 20.11352539 C48.74727783 20.10828857 47.45378418 20.10305176 46.12109375 20.09765625 C45.09110008 20.09553383 45.09110008 20.09553383 44.04029846 20.09336853 C41.83932199 20.08775479 39.63844591 20.07520007 37.4375 20.0625 C35.94856917 20.05748676 34.45963676 20.05292355 32.97070312 20.04882812 C29.31373195 20.03863021 25.65697883 20.01905779 22 20 C22 25.61 22 31.22 22 37 C31.9 37 41.8 37 52 37 C52 43.27 52 49.54 52 56 C42.1 56 32.2 56 22 56 C22 61.61 22 67.22 22 73 C32.56 73 43.12 73 54 73 C54 79.27 54 85.54 54 92 C36.18 92 18.36 92 0 92 C0 61.64 0 31.28 0 0 Z " fill="#2563EB" transform="translate(1112,188)"/>
<path d="M0 0 C49.75 0 49.75 0 61.3125 11.25 C66.10077227 19.05311036 67.06976739 27.65849599 65.56640625 36.5703125 C63.56873218 44.68508792 58.99019096 50.15167409 52.1875 54.875 C42.70913091 60.2370488 32.82970069 59 22 59 C22 69.89 22 80.78 22 92 C14.74 92 7.48 92 0 92 C0 61.64 0 31.28 0 0 Z M22 18 C22 25.59 22 33.18 22 41 C32.39241976 41.39747713 32.39241976 41.39747713 41 37 C43.29912091 33.29586076 43.38031094 30.33554476 43 26 C41.59152491 22.35453507 40.35762171 21.21606312 37 19.1875 C31.9379054 17.47823647 31.9379054 17.47823647 22 18 Z " fill="#2563EB" transform="translate(954,188)"/>
<path d="M0 0 C0.52207031 0.43957031 1.04414062 0.87914062 1.58203125 1.33203125 C0.23353288 5.69173956 -1.46704721 9.64544563 -3.54296875 13.70703125 C-4.08179688 14.76664063 -4.620625 15.82625 -5.17578125 16.91796875 C-5.58570313 17.71460938 -5.995625 18.51125 -6.41796875 19.33203125 C-9.31301658 18.1899026 -12.14700938 16.9994864 -14.98046875 15.70703125 C-20.22483311 13.74539878 -25.90319157 13.49868714 -31.41796875 14.33203125 C-33.35185935 15.84880819 -34.26627894 17.04761285 -35.41796875 19.20703125 C-35.64448222 21.57892065 -35.64448222 21.57892065 -33.42578125 23.7265625 C-29.91431305 26.76831482 -26.52711089 28.34225842 -22.29296875 30.14453125 C-11.54306797 34.99252572 -1.82740073 40.34799379 3.58203125 51.33203125 C6.03083615 58.3577691 4.50398706 67.1474559 1.51953125 73.76953125 C-3.10895977 81.85955663 -9.9261944 85.19995045 -18.71875 87.640625 C-34.47490973 90.58554609 -48.65770321 87.48626268 -62.41796875 79.33203125 C-64.26171875 77.64453125 -64.26171875 77.64453125 -65.41796875 76.33203125 C-63.8894294 72.060166 -61.70287394 68.33876262 -59.29296875 64.51953125 C-58.92042969 63.92205078 -58.54789063 63.32457031 -58.1640625 62.70898438 C-57.25226395 61.24776874 -56.33560899 59.7895854 -55.41796875 58.33203125 C-51.57968345 59.79794464 -47.95212483 61.52826994 -44.29296875 63.39453125 C-38.51264378 66.34235284 -33.98929592 68.0015627 -27.41796875 67.33203125 C-23.96400774 66.39839843 -23.96400774 66.39839843 -21.41796875 64.33203125 C-20.08246028 61.48575534 -20.08246028 61.48575534 -20.41796875 58.33203125 C-23.6316332 52.84463207 -28.55918527 51.05366132 -34.10546875 48.51953125 C-43.76070677 43.8792501 -52.84973791 39.34899863 -56.83203125 28.75390625 C-58.59663161 21.46022474 -58.19934013 13.89896803 -54.41796875 7.33203125 C-49.89954235 0.76868017 -44.21301638 -3.69816089 -36.63671875 -6.2734375 C-24.48905408 -8.43349759 -10.36173423 -7.14775528 0 0 Z " fill="#2563EB" transform="translate(941.41796875,193.66796875)"/>
<path d="M0 0 C0.52207031 0.43957031 1.04414062 0.87914062 1.58203125 1.33203125 C0.23353288 5.69173956 -1.46704721 9.64544563 -3.54296875 13.70703125 C-4.08179688 14.76664063 -4.620625 15.82625 -5.17578125 16.91796875 C-5.58570313 17.71460938 -5.995625 18.51125 -6.41796875 19.33203125 C-9.31301658 18.1899026 -12.14700938 16.9994864 -14.98046875 15.70703125 C-20.22483311 13.74539878 -25.90319157 13.49868714 -31.41796875 14.33203125 C-33.35185935 15.84880819 -34.26627894 17.04761285 -35.41796875 19.20703125 C-35.64448222 21.57892065 -35.64448222 21.57892065 -33.42578125 23.7265625 C-29.91431305 26.76831482 -26.52711089 28.34225842 -22.29296875 30.14453125 C-11.54306797 34.99252572 -1.82740073 40.34799379 3.58203125 51.33203125 C6.03083615 58.3577691 4.50398706 67.1474559 1.51953125 73.76953125 C-3.10895977 81.85955663 -9.9261944 85.19995045 -18.71875 87.640625 C-34.47490973 90.58554609 -48.65770321 87.48626268 -62.41796875 79.33203125 C-64.26171875 77.64453125 -64.26171875 77.64453125 -65.41796875 76.33203125 C-63.8894294 72.060166 -61.70287394 68.33876262 -59.29296875 64.51953125 C-58.92042969 63.92205078 -58.54789062 63.32457031 -58.1640625 62.70898438 C-57.25226395 61.24776874 -56.33560899 59.7895854 -55.41796875 58.33203125 C-51.57968345 59.79794464 -47.95212483 61.52826994 -44.29296875 63.39453125 C-38.51264378 66.34235284 -33.98929592 68.0015627 -27.41796875 67.33203125 C-23.96400774 66.39839843 -23.96400774 66.39839843 -21.41796875 64.33203125 C-20.08246028 61.48575534 -20.08246028 61.48575534 -20.41796875 58.33203125 C-23.6316332 52.84463207 -28.55918527 51.05366132 -34.10546875 48.51953125 C-43.76070677 43.8792501 -52.84973791 39.34899863 -56.83203125 28.75390625 C-58.59663161 21.46022474 -58.19934013 13.89896803 -54.41796875 7.33203125 C-49.89954235 0.76868017 -44.21301638 -3.69816089 -36.63671875 -6.2734375 C-24.48905408 -8.43349759 -10.36173423 -7.14775528 0 0 Z " fill="#2563EB" transform="translate(528.41796875,193.66796875)"/>
<path d="M0 0 C49.24585635 0 49.24585635 0 58.56640625 8.4140625 C64.50650865 15.04569921 65.98808538 22.34998248 66 31 C65.29290788 39.7165174 62.09227608 46.36102999 55.6875 52.3125 C45.86397083 60.17132334 34.19288714 59 22 59 C22 69.89 22 80.78 22 92 C14.74 92 7.48 92 0 92 C0 61.64 0 31.28 0 0 Z M22 18 C22 25.59 22 33.18 22 41 C31.65025918 41.5399412 31.65025918 41.5399412 39 38 C39.598125 37.608125 40.19625 37.21625 40.8125 36.8125 C42.78999163 33.79422331 43.11735461 30.52754155 43 27 C41.42041517 23.25887802 39.42661319 21.14163324 36 19 C31.78779356 17.4202491 31.78779356 17.4202491 22 18 Z " fill="#2563EB" transform="translate(680,188)"/>
<path d="M0 0 C17.49 0 34.98 0 53 0 C53 6.6 53 13.2 53 20 C42.77 20 32.54 20 22 20 C22 25.61 22 31.22 22 37 C31.9 37 41.8 37 52 37 C52 43.27 52 49.54 52 56 C42.1 56 32.2 56 22 56 C22 61.61 22 67.22 22 73 C32.23 73 42.46 73 53 73 C53 79.27 53 85.54 53 92 C35.51 92 18.02 92 0 92 C0 61.64 0 31.28 0 0 Z " fill="#2563EB" transform="translate(816,188)"/>
<path d="M0 0 C17.49 0 34.98 0 53 0 C53 6.6 53 13.2 53 20 C42.44 20 31.88 20 21 20 C21 25.61 21 31.22 21 37 C30.9 37 40.8 37 51 37 C51 43.27 51 49.54 51 56 C41.1 56 31.2 56 21 56 C21 61.61 21 67.22 21 73 C31.56 73 42.12 73 53 73 C53 79.27 53 85.54 53 92 C35.51 92 18.02 92 0 92 C0 61.64 0 31.28 0 0 Z " fill="#2563EB" transform="translate(1256,188)"/>
<path d="M0 0 C6.93 0 13.86 0 21 0 C21 24.09 21 48.18 21 73 C31.56 73 42.12 73 53 73 C53 79.27 53 85.54 53 92 C35.51 92 18.02 92 0 92 C0 61.64 0 31.28 0 0 Z " fill="#2563EB" transform="translate(754,188)"/>
<path d="M0 0 C7.26 0 14.52 0 22 0 C22 30.36 22 60.72 22 92 C14.74 92 7.48 92 0 92 C0 61.64 0 31.28 0 0 Z " fill="#2563EB" transform="translate(541,188)"/>
<path d="M0 0 C3.63 0 7.26 0 11 0 C13.72353021 2.86050308 15.15557892 4.75514614 16.9375 8.125 C17.37900391 8.88554687 17.82050781 9.64609375 18.27539062 10.4296875 C19.10619441 11.86168214 19.92033141 13.30359408 20.71069336 14.75830078 C22.33817786 17.58798507 24.18927817 20.28391726 26 23 C26.33 15.41 26.66 7.82 27 0 C30.63 0 34.26 0 38 0 C38 14.52 38 29.04 38 44 C27 44 27 44 24.421875 41.98046875 C23.87015625 41.05878906 23.3184375 40.13710938 22.75 39.1875 C22.12609375 38.19492187 21.5021875 37.20234375 20.859375 36.1796875 C20.24578125 35.13039063 19.6321875 34.08109375 19 33 C17.67064514 30.93493349 16.33752303 28.87228547 15 26.8125 C14.01 25.224375 13.02 23.63625 12 22 C11.67 29.26 11.34 36.52 11 44 C7.37 44 3.74 44 0 44 C0 29.48 0 14.96 0 0 Z " fill="#2563EB" transform="translate(652,303)"/>
<path d="M0 0 C4.81932921 4.81932921 7.11827163 10.7317067 7.375 17.5 C7.07900528 24.9770841 4.36793438 30.75135305 -1 36 C-7.29108857 40.81171145 -14.35185963 40.9368972 -22 40 C-27.90429647 38.31576158 -31.56592853 35.10204904 -35 30 C-38.2269915 23.84529445 -39.09708688 17.65198854 -37.49609375 10.86328125 C-35.46009265 4.75527796 -32.05965267 0.05955021 -26.5 -3.3125 C-17.23048428 -7.78173079 -7.95254722 -6.51333914 0 0 Z M-24 9 C-26.53074281 13.24454409 -26.68641587 17.16997611 -26 22 C-24.3754935 25.19099492 -22.98058877 27.22229167 -20.1875 29.4375 C-16.781792 30.31325348 -14.38719708 29.89136765 -11 29 C-6.58963369 25.29107666 -6.58963369 25.29107666 -4.76171875 20.046875 C-4.58206229 14.48698022 -5.25230946 11.39015178 -9 7 C-14.65611452 3.22925699 -19.37955556 4.24754286 -24 9 Z " fill="#2563EB" transform="translate(739,308)"/>
<path d="M0 0 C4.90221625 4.76776728 8.56657463 9.06389287 9.3359375 16.05078125 C9.43149896 24.03016343 8.9577428 29.80779376 3.3515625 35.74609375 C-2.66021211 41.21969639 -7.93255934 42.47679017 -15.99609375 42.30859375 C-23.05849295 41.58306769 -27.33643188 38.22066441 -31.7734375 32.87890625 C-35.8390961 26.65093878 -35.68177673 20.21110008 -35 13 C-33.27777534 6.36180494 -28.6138822 1.71522003 -23 -2 C-15.63586593 -5.39883111 -6.66498918 -4.49162314 0 0 Z M-21 10 C-23.6307227 14.47222859 -24.55460348 18.02988098 -23.6328125 23.0703125 C-22.44466623 26.69342519 -20.87523822 28.43728767 -18 31 C-14.06716823 32.19389536 -12.03746128 32.44799464 -8.25 30.8125 C-4.50419153 27.79504318 -3.25152073 26.00608291 -2.0625 21.25 C-1.62308502 16.55704804 -3.11248822 12.69393399 -6 9 C-11.21580075 5.78947723 -16.27671938 6.04265678 -21 10 Z " fill="#2563EB" transform="translate(828,306)"/>
<path d="M0 0 C2 2 2 2 2 3.8125 C0.46033505 7.18051709 -2.0770945 8.76117877 -5 11 C-5.53625 10.360625 -6.0725 9.72125 -6.625 9.0625 C-9.55332899 6.51947746 -11.13822812 6.07723544 -15 6 C-18.23140476 6.95041317 -20.20918005 7.81515747 -22.11328125 10.66796875 C-24.22044437 15.31857986 -24.24274119 19.1277613 -22.859375 24.01171875 C-21.51660251 27.118406 -19.97463672 28.44507626 -17 30 C-14 30.75 -14 30.75 -11 30 C-8.12359384 27.62499209 -8.12359384 27.62499209 -6 25 C-8.97 24.67 -11.94 24.34 -15 24 C-15 21.03 -15 18.06 -15 15 C-8.07 15 -1.14 15 6 15 C6.46215494 28.86464826 6.46215494 28.86464826 0.75 35.6875 C-5.20736089 40.69709893 -10.40085243 41.62475781 -18.0625 41.4140625 C-24.0014551 40.57692255 -27.96309243 37.37680093 -31.875 33 C-36.59941624 26.33023589 -36.87341662 19.99083289 -36 12 C-34.01059198 4.93084141 -30.44869296 0.89152925 -24.28125 -2.94140625 C-15.95566617 -6.80481929 -7.30680295 -5.02342703 0 0 Z " fill="#2563EB" transform="translate(883,307)"/>
<path d="M0 0 C3.63 0 7.26 0 11 0 C11 5.61 11 11.22 11 17 C15.29 17 19.58 17 24 17 C24 11.39 24 5.78 24 0 C27.63 0 31.26 0 35 0 C35 14.52 35 29.04 35 44 C31.37 44 27.74 44 24 44 C24 38.39 24 32.78 24 27 C19.71 27 15.42 27 11 27 C11 32.61 11 38.22 11 44 C7.37 44 3.74 44 0 44 C0 29.48 0 14.96 0 0 Z " fill="#2563EB" transform="translate(604,303)"/>
<path d="M0 0 C-1.05875074 3.40312738 -2.00902154 6.01353231 -4 9 C-4.70125 8.855625 -5.4025 8.71125 -6.125 8.5625 C-7.07375 8.376875 -8.0225 8.19125 -9 8 C-10.051875 7.79375 -11.10375 7.5875 -12.1875 7.375 C-14.94643572 6.73925894 -14.94643572 6.73925894 -17 8 C-16.94090684 9.92656745 -16.94090684 9.92656745 -16 12 C-13.40309225 13.59114162 -13.40309225 13.59114162 -10.25 14.875 C-5.06648837 17.34333887 -1.82657966 18.95253631 1 24 C1.82446394 28.10583043 1.2298025 31.29707472 -0.0625 35.25 C-2.55745391 38.79122491 -4.89095191 40.75674955 -9 42 C-16.59415846 42.86099376 -23.12463737 42.3728194 -30 39 C-30.66 38.34 -31.32 37.68 -32 37 C-31.67800066 33.02867481 -30.16420003 30.29334787 -28 27 C-27.1646875 27.433125 -27.1646875 27.433125 -26.3125 27.875 C-21.62310717 30.15632624 -18.29242322 31.24615922 -13 31 C-12.67 29.68 -12.34 28.36 -12 27 C-13.22976563 26.32904297 -13.22976563 26.32904297 -14.484375 25.64453125 C-15.56203125 25.03996094 -16.6396875 24.43539063 -17.75 23.8125 C-18.81734375 23.22082031 -19.8846875 22.62914062 -20.984375 22.01953125 C-24.64020833 19.57125945 -27.03263445 16.9347311 -29 13 C-29.04255161 8.66824605 -28.50990323 4.97731453 -26.5 1.125 C-18.60348651 -5.58703646 -8.7989 -4.81991025 0 0 Z " fill="#2563EB" transform="translate(993,306)"/>
<path d="M0 0 C8.58 0 17.16 0 26 0 C26 3.3 26 6.6 26 10 C21.05 10 16.1 10 11 10 C11 12.31 11 14.62 11 17 C11.99902344 16.98839844 12.99804688 16.97679687 14.02734375 16.96484375 C15.31769531 16.95582031 16.60804688 16.94679688 17.9375 16.9375 C19.22527344 16.92589844 20.51304687 16.91429687 21.83984375 16.90234375 C25 17 25 17 26 18 C26.14193337 21.00331018 26.04236378 23.99217134 26 27 C21.05 27 16.1 27 11 27 C11 29.64 11 32.28 11 35 C15.95 35 20.9 35 26 35 C26 37.97 26 40.94 26 44 C17.42 44 8.84 44 0 44 C0 29.48 0 14.96 0 0 Z " fill="#2563EB" transform="translate(518,303)"/>
<path d="M0 0 C1.11761719 0.17144531 2.23523438 0.34289062 3.38671875 0.51953125 C6.3125 1.1875 6.3125 1.1875 9.3125 3.1875 C8.74704163 7.14570859 7.50347652 9.8534053 5.3125 13.1875 C4.508125 12.836875 3.70375 12.48625 2.875 12.125 C-2.74809794 10.64523738 -7.50750007 10.98154259 -12.625 13.8125 C-15.32763055 16.92462003 -16.13323716 19.09981159 -16.6875 23.1875 C-15.59895939 26.81596871 -14.52503145 29.29014487 -11.9375 32.0625 C-5.88742278 35.08753861 -0.84586349 34.0242049 5.3125 32.1875 C9.3125 38.8125 9.3125 38.8125 9.3125 42.1875 C2.20326205 46.24992169 -6.22871249 46.57844105 -14.125 44.56640625 C-20.17398096 41.90816266 -24.98885999 36.68738244 -27.8515625 30.7890625 C-29.6913816 25.06327033 -29.71231039 19.07230091 -27.6953125 13.39453125 C-24.21840309 6.902336 -19.47772334 2.99260751 -12.6875 0.1875 C-8.19930883 -0.90274887 -4.54338071 -0.73348423 0 0 Z " fill="#2563EB" transform="translate(583.6875,302.8125)"/>
<path d="M0 0 C8.58 0 17.16 0 26 0 C26 3.3 26 6.6 26 10 C21.05 10 16.1 10 11 10 C11 12.31 11 14.62 11 17 C15.62 17 20.24 17 25 17 C25 20.3 25 23.6 25 27 C20.38 27 15.76 27 11 27 C11 29.64 11 32.28 11 35 C15.95 35 20.9 35 26 35 C26 37.97 26 40.94 26 44 C17.42 44 8.84 44 0 44 C0 29.48 0 14.96 0 0 Z " fill="#2563EB" transform="translate(924,303)"/>
<path d="M0 0 C10.56 0 21.12 0 32 0 C32 3.3 32 6.6 32 10 C28.7 10 25.4 10 22 10 C22 21.22 22 32.44 22 44 C18.37 44 14.74 44 11 44 C11 32.78 11 21.56 11 10 C7.37 10 3.74 10 0 10 C0 6.7 0 3.4 0 0 Z " fill="#2563EB" transform="translate(476,303)"/>
<path d="M0 0 C3.63 0 7.26 0 11 0 C11 11.55 11 23.1 11 35 C15.95 35 20.9 35 26 35 C26 37.97 26 40.94 26 44 C17.42 44 8.84 44 0 44 C0 29.48 0 14.96 0 0 Z " fill="#2563EB" transform="translate(757,303)"/>
<path d="M0 0 C3.63 0 7.26 0 11 0 C11 14.52 11 29.04 11 44 C7.37 44 3.74 44 0 44 C0 29.48 0 14.96 0 0 Z " fill="#2563EB" transform="translate(900,303)"/>
</svg>
